<?xml version="1.0" encoding="UTF-8"?>
<svg xmlns="http://www.w3.org/2000/svg" viewBox="0 0 1200 1110" role="img" aria-label="Menaka Peiris Dancing Academy">
  <title>Menaka Peiris Dancing Academy</title>
  <defs>
    <linearGradient id="gold" x1="0%" y1="0%" x2="0%" y2="100%">
      <stop offset="0%" stop-color="#FFF4C4"/>
      <stop offset="35%" stop-color="#E8C84A"/>
      <stop offset="65%" stop-color="#C9A227"/>
      <stop offset="100%" stop-color="#6B4A12"/>
    </linearGradient>
    <linearGradient id="goldShine" x1="0%" y1="0%" x2="100%" y2="0%">
      <stop offset="0%" stop-color="#B8942A"/>
      <stop offset="40%" stop-color="#FFFBE6"/>
      <stop offset="60%" stop-color="#FFFBE6"/>
      <stop offset="100%" stop-color="#B8942A"/>
    </linearGradient>
  </defs>
  <rect width="1200" height="1110" fill="#000"/>
  <g fill="url(#gold)" fill-rule="evenodd">
    <path d="M 857.0 773.0 L 857.0 774.0 L 859.0 774.0 L 860.0 775.0 L 862.0 775.0 L 863.0 776.0 L 863.0 777.0 L 864.0 778.0 L 864.0 779.0 L 865.0 780.0 L 865.0 781.0 L 867.0 783.0 L 867.0 784.0 L 868.0 785.0 L 868.0 786.0 L 869.0 787.0 L 869.0 788.0 L 870.0 789.0 L 870.0 790.0 L 871.0 791.0 L 871.0 792.0 L 872.0 793.0 L 872.0 794.0 L 873.0 795.0 L 873.0 797.0 L 874.0 798.0 L 874.0 807.0 L 871.0 810.0 L 869.0 810.0 L 869.0 812.0 L 872.0 812.0 L 873.0 811.0 L 876.0 811.0 L 877.0 812.0 L 882.0 812.0 L 883.0 811.0 L 883.0 810.0 L 881.0 810.0 L 880.0 809.0 L 880.0 793.0 L 881.0 792.0 L 881.0 791.0 L 882.0 790.0 L 882.0 789.0 L 883.0 788.0 L 883.0 786.0 L 885.0 784.0 L 885.0 783.0 L 886.0 782.0 L 886.0 781.0 L 887.0 780.0 L 887.0 779.0 L 888.0 778.0 L 888.0 777.0 L 890.0 775.0 L 891.0 775.0 L 892.0 774.0 L 893.0 774.0 L 894.0 773.0 L 884.0 773.0 L 884.0 774.0 L 887.0 774.0 L 888.0 775.0 L 887.0 776.0 L 887.0 777.0 L 886.0 778.0 L 886.0 779.0 L 883.0 782.0 L 883.0 784.0 L 882.0 785.0 L 882.0 786.0 L 878.0 790.0 L 877.0 789.0 L 877.0 788.0 L 876.0 787.0 L 876.0 786.0 L 874.0 784.0 L 874.0 783.0 L 872.0 781.0 L 872.0 780.0 L 870.0 778.0 L 870.0 774.0 L 871.0 773.0 L 867.0 773.0 L 866.0 774.0 L 862.0 774.0 L 861.0 773.0 Z"/>
    <path d="M 807.0 773.0 L 807.0 774.0 L 809.0 776.0 L 809.0 807.0 L 806.0 810.0 L 805.0 810.0 L 804.0 811.0 L 805.0 812.0 L 813.0 812.0 L 814.0 811.0 L 812.0 811.0 L 810.0 809.0 L 810.0 784.0 L 811.0 783.0 L 813.0 783.0 L 814.0 784.0 L 814.0 786.0 L 815.0 787.0 L 815.0 789.0 L 816.0 790.0 L 816.0 792.0 L 817.0 793.0 L 817.0 795.0 L 818.0 796.0 L 818.0 798.0 L 819.0 799.0 L 819.0 801.0 L 820.0 802.0 L 820.0 803.0 L 821.0 804.0 L 821.0 806.0 L 822.0 807.0 L 822.0 808.0 L 823.0 809.0 L 823.0 811.0 L 824.0 810.0 L 824.0 809.0 L 825.0 808.0 L 825.0 806.0 L 826.0 805.0 L 826.0 803.0 L 827.0 802.0 L 827.0 801.0 L 828.0 800.0 L 828.0 798.0 L 829.0 797.0 L 829.0 796.0 L 830.0 795.0 L 830.0 793.0 L 831.0 792.0 L 831.0 791.0 L 832.0 790.0 L 832.0 788.0 L 833.0 787.0 L 833.0 786.0 L 834.0 785.0 L 836.0 785.0 L 837.0 786.0 L 837.0 807.0 L 834.0 810.0 L 833.0 810.0 L 833.0 811.0 L 834.0 812.0 L 835.0 812.0 L 836.0 811.0 L 842.0 811.0 L 843.0 812.0 L 846.0 812.0 L 847.0 811.0 L 846.0 811.0 L 844.0 809.0 L 844.0 776.0 L 846.0 774.0 L 848.0 774.0 L 849.0 773.0 L 837.0 773.0 L 836.0 774.0 L 836.0 775.0 L 835.0 776.0 L 835.0 777.0 L 834.0 778.0 L 834.0 780.0 L 833.0 781.0 L 833.0 783.0 L 832.0 784.0 L 832.0 785.0 L 831.0 786.0 L 831.0 788.0 L 830.0 789.0 L 830.0 791.0 L 829.0 792.0 L 829.0 794.0 L 826.0 797.0 L 824.0 795.0 L 824.0 793.0 L 823.0 792.0 L 823.0 790.0 L 822.0 789.0 L 822.0 788.0 L 821.0 787.0 L 821.0 785.0 L 820.0 784.0 L 820.0 783.0 L 819.0 782.0 L 819.0 780.0 L 818.0 779.0 L 818.0 777.0 L 817.0 776.0 L 817.0 774.0 L 816.0 773.0 Z"/>
    <path d="M 762.0 773.0 L 762.0 774.0 L 763.0 775.0 L 764.0 775.0 L 765.0 776.0 L 765.0 782.0 L 766.0 783.0 L 766.0 807.0 L 763.0 810.0 L 762.0 810.0 L 761.0 811.0 L 761.0 812.0 L 764.0 812.0 L 765.0 811.0 L 770.0 811.0 L 771.0 812.0 L 785.0 812.0 L 786.0 811.0 L 792.0 811.0 L 794.0 809.0 L 794.0 801.0 L 793.0 800.0 L 792.0 800.0 L 792.0 802.0 L 790.0 804.0 L 790.0 805.0 L 785.0 810.0 L 784.0 810.0 L 783.0 811.0 L 774.0 811.0 L 772.0 809.0 L 772.0 793.0 L 773.0 792.0 L 778.0 792.0 L 779.0 793.0 L 780.0 793.0 L 782.0 795.0 L 782.0 796.0 L 783.0 797.0 L 783.0 799.0 L 784.0 798.0 L 784.0 784.0 L 782.0 784.0 L 782.0 785.0 L 777.0 790.0 L 775.0 790.0 L 774.0 791.0 L 773.0 790.0 L 773.0 789.0 L 772.0 788.0 L 772.0 776.0 L 773.0 775.0 L 774.0 775.0 L 775.0 774.0 L 784.0 774.0 L 785.0 775.0 L 786.0 775.0 L 788.0 777.0 L 788.0 778.0 L 789.0 779.0 L 789.0 780.0 L 790.0 781.0 L 791.0 780.0 L 791.0 774.0 L 790.0 773.0 Z"/>
    <path d="M 714.0 773.0 L 714.0 774.0 L 715.0 774.0 L 716.0 775.0 L 716.0 807.0 L 712.0 811.0 L 712.0 812.0 L 715.0 812.0 L 716.0 811.0 L 719.0 811.0 L 720.0 812.0 L 730.0 812.0 L 731.0 811.0 L 733.0 811.0 L 734.0 810.0 L 736.0 810.0 L 737.0 809.0 L 738.0 809.0 L 739.0 808.0 L 740.0 808.0 L 747.0 801.0 L 747.0 800.0 L 748.0 799.0 L 748.0 798.0 L 749.0 797.0 L 749.0 792.0 L 750.0 791.0 L 750.0 790.0 L 749.0 789.0 L 749.0 785.0 L 747.0 783.0 L 747.0 782.0 L 743.0 778.0 L 742.0 778.0 L 740.0 776.0 L 738.0 776.0 L 737.0 775.0 L 736.0 775.0 L 735.0 774.0 L 732.0 774.0 L 731.0 773.0 Z"/>
    <path d="M 724.0 774.0 L 730.0 774.0 L 731.0 775.0 L 734.0 775.0 L 735.0 776.0 L 736.0 776.0 L 740.0 780.0 L 740.0 781.0 L 741.0 782.0 L 741.0 783.0 L 742.0 784.0 L 742.0 796.0 L 741.0 797.0 L 741.0 800.0 L 740.0 801.0 L 740.0 802.0 L 739.0 803.0 L 739.0 804.0 L 735.0 808.0 L 734.0 808.0 L 733.0 809.0 L 732.0 809.0 L 731.0 810.0 L 729.0 810.0 L 728.0 811.0 L 725.0 811.0 L 723.0 809.0 L 723.0 795.0 L 722.0 794.0 L 722.0 787.0 L 723.0 786.0 L 723.0 775.0 Z"/>
    <path d="M 591.0 773.0 L 590.0 774.0 L 590.0 776.0 L 589.0 777.0 L 589.0 778.0 L 588.0 779.0 L 588.0 781.0 L 587.0 782.0 L 587.0 783.0 L 586.0 784.0 L 586.0 786.0 L 585.0 787.0 L 585.0 789.0 L 584.0 790.0 L 584.0 791.0 L 583.0 792.0 L 583.0 793.0 L 582.0 794.0 L 582.0 796.0 L 581.0 797.0 L 581.0 799.0 L 580.0 800.0 L 580.0 802.0 L 579.0 803.0 L 579.0 805.0 L 578.0 806.0 L 578.0 807.0 L 575.0 810.0 L 573.0 810.0 L 573.0 812.0 L 581.0 812.0 L 582.0 811.0 L 582.0 810.0 L 580.0 810.0 L 579.0 809.0 L 579.0 807.0 L 580.0 806.0 L 580.0 804.0 L 581.0 803.0 L 581.0 801.0 L 582.0 800.0 L 582.0 799.0 L 583.0 798.0 L 583.0 797.0 L 584.0 796.0 L 596.0 796.0 L 598.0 798.0 L 598.0 800.0 L 599.0 801.0 L 599.0 802.0 L 600.0 803.0 L 600.0 805.0 L 601.0 806.0 L 601.0 807.0 L 602.0 808.0 L 599.0 811.0 L 598.0 811.0 L 598.0 812.0 L 600.0 812.0 L 601.0 811.0 L 608.0 811.0 L 609.0 812.0 L 611.0 812.0 L 612.0 811.0 L 610.0 811.0 L 608.0 809.0 L 608.0 807.0 L 607.0 806.0 L 607.0 805.0 L 606.0 804.0 L 606.0 802.0 L 605.0 801.0 L 605.0 799.0 L 604.0 798.0 L 604.0 797.0 L 603.0 796.0 L 603.0 794.0 L 602.0 793.0 L 602.0 792.0 L 601.0 791.0 L 601.0 789.0 L 600.0 788.0 L 600.0 787.0 L 599.0 786.0 L 599.0 785.0 L 598.0 784.0 L 598.0 782.0 L 597.0 781.0 L 597.0 780.0 L 596.0 779.0 L 596.0 777.0 L 595.0 776.0 L 595.0 775.0 L 594.0 774.0 L 594.0 773.0 Z"/>
    <path d="M 589.0 782.0 L 591.0 782.0 L 592.0 783.0 L 592.0 785.0 L 593.0 786.0 L 593.0 787.0 L 594.0 788.0 L 594.0 791.0 L 595.0 792.0 L 592.0 795.0 L 586.0 795.0 L 585.0 794.0 L 585.0 791.0 L 586.0 790.0 L 586.0 788.0 L 587.0 787.0 L 587.0 785.0 L 588.0 784.0 L 588.0 783.0 Z"/>
    <path d="M 515.0 776.0 L 511.0 780.0 L 511.0 781.0 L 510.0 782.0 L 510.0 783.0 L 509.0 784.0 L 509.0 798.0 L 510.0 799.0 L 510.0 800.0 L 511.0 801.0 L 511.0 802.0 L 512.0 803.0 L 512.0 804.0 L 518.0 810.0 L 519.0 810.0 L 520.0 811.0 L 522.0 811.0 L 523.0 812.0 L 531.0 812.0 L 532.0 811.0 L 534.0 811.0 L 535.0 810.0 L 536.0 810.0 L 537.0 809.0 L 542.0 809.0 L 543.0 808.0 L 543.0 799.0 L 546.0 796.0 L 532.0 796.0 L 532.0 797.0 L 533.0 798.0 L 536.0 798.0 L 537.0 799.0 L 537.0 803.0 L 536.0 804.0 L 536.0 806.0 L 532.0 810.0 L 531.0 810.0 L 530.0 811.0 L 524.0 811.0 L 523.0 810.0 L 522.0 810.0 L 519.0 807.0 L 519.0 806.0 L 518.0 805.0 L 518.0 804.0 L 517.0 803.0 L 517.0 801.0 L 516.0 800.0 L 516.0 784.0 L 517.0 783.0 L 517.0 779.0 L 518.0 778.0 L 518.0 777.0 L 520.0 775.0 L 521.0 775.0 L 522.0 774.0 L 525.0 774.0 L 526.0 773.0 L 529.0 773.0 L 530.0 774.0 L 532.0 774.0 L 533.0 775.0 L 535.0 775.0 L 538.0 778.0 L 538.0 780.0 L 540.0 782.0 L 541.0 781.0 L 541.0 775.0 L 540.0 774.0 L 534.0 774.0 L 533.0 773.0 L 521.0 773.0 L 520.0 774.0 L 519.0 774.0 L 518.0 775.0 L 517.0 775.0 L 516.0 776.0 Z"/>
    <path d="M 465.0 774.0 L 466.0 774.0 L 467.0 775.0 L 467.0 807.0 L 464.0 810.0 L 462.0 810.0 L 462.0 811.0 L 463.0 812.0 L 464.0 811.0 L 466.0 811.0 L 467.0 812.0 L 471.0 812.0 L 472.0 811.0 L 472.0 810.0 L 470.0 810.0 L 469.0 809.0 L 469.0 784.0 L 470.0 783.0 L 472.0 783.0 L 474.0 785.0 L 474.0 786.0 L 476.0 788.0 L 476.0 789.0 L 479.0 792.0 L 479.0 793.0 L 481.0 795.0 L 481.0 796.0 L 483.0 798.0 L 483.0 799.0 L 485.0 801.0 L 485.0 802.0 L 487.0 804.0 L 487.0 805.0 L 489.0 807.0 L 489.0 808.0 L 491.0 810.0 L 491.0 811.0 L 492.0 811.0 L 493.0 810.0 L 493.0 801.0 L 494.0 800.0 L 494.0 788.0 L 493.0 787.0 L 493.0 775.0 L 494.0 774.0 L 495.0 774.0 L 496.0 773.0 L 487.0 773.0 L 487.0 774.0 L 491.0 774.0 L 492.0 775.0 L 492.0 793.0 L 489.0 796.0 L 488.0 795.0 L 488.0 794.0 L 485.0 791.0 L 485.0 790.0 L 483.0 788.0 L 483.0 787.0 L 480.0 784.0 L 480.0 783.0 L 479.0 782.0 L 479.0 781.0 L 477.0 779.0 L 477.0 778.0 L 475.0 776.0 L 475.0 775.0 L 473.0 773.0 L 470.0 773.0 L 469.0 774.0 Z"/>
    <path d="M 449.0 773.0 L 447.0 773.0 L 446.0 774.0 L 440.0 774.0 L 442.0 776.0 L 442.0 807.0 L 438.0 811.0 L 437.0 811.0 L 437.0 812.0 L 441.0 812.0 L 442.0 811.0 L 446.0 811.0 L 447.0 812.0 L 449.0 812.0 L 450.0 811.0 L 452.0 811.0 L 450.0 811.0 L 448.0 809.0 L 448.0 801.0 L 449.0 800.0 L 449.0 790.0 L 448.0 789.0 L 448.0 776.0 L 449.0 775.0 Z"/>
    <path d="M 348.0 773.0 L 348.0 774.0 L 350.0 774.0 L 352.0 776.0 L 352.0 807.0 L 348.0 811.0 L 346.0 811.0 L 347.0 812.0 L 349.0 812.0 L 350.0 811.0 L 353.0 811.0 L 354.0 812.0 L 356.0 812.0 L 357.0 811.0 L 354.0 811.0 L 353.0 810.0 L 353.0 783.0 L 354.0 782.0 L 356.0 782.0 L 358.0 784.0 L 358.0 785.0 L 360.0 787.0 L 360.0 788.0 L 362.0 790.0 L 362.0 791.0 L 364.0 793.0 L 364.0 794.0 L 367.0 797.0 L 367.0 798.0 L 369.0 800.0 L 369.0 801.0 L 371.0 803.0 L 371.0 804.0 L 373.0 806.0 L 373.0 807.0 L 375.0 809.0 L 375.0 810.0 L 376.0 811.0 L 377.0 811.0 L 378.0 810.0 L 378.0 775.0 L 379.0 774.0 L 380.0 774.0 L 381.0 773.0 L 371.0 773.0 L 371.0 774.0 L 375.0 774.0 L 376.0 775.0 L 376.0 784.0 L 377.0 785.0 L 377.0 794.0 L 374.0 797.0 L 373.0 796.0 L 373.0 795.0 L 371.0 793.0 L 371.0 792.0 L 369.0 790.0 L 369.0 789.0 L 367.0 787.0 L 367.0 786.0 L 365.0 784.0 L 365.0 783.0 L 362.0 780.0 L 362.0 779.0 L 360.0 777.0 L 360.0 776.0 L 358.0 774.0 L 357.0 774.0 L 356.0 773.0 Z"/>
    <path d="M 256.0 773.0 L 256.0 774.0 L 258.0 776.0 L 258.0 807.0 L 255.0 810.0 L 254.0 810.0 L 254.0 812.0 L 256.0 812.0 L 257.0 811.0 L 262.0 811.0 L 263.0 812.0 L 272.0 812.0 L 273.0 811.0 L 276.0 811.0 L 277.0 810.0 L 279.0 810.0 L 280.0 809.0 L 281.0 809.0 L 283.0 807.0 L 284.0 807.0 L 288.0 803.0 L 288.0 802.0 L 289.0 801.0 L 289.0 800.0 L 290.0 799.0 L 290.0 797.0 L 291.0 796.0 L 291.0 793.0 L 292.0 792.0 L 292.0 791.0 L 291.0 790.0 L 291.0 787.0 L 290.0 786.0 L 290.0 784.0 L 289.0 783.0 L 289.0 782.0 L 285.0 778.0 L 284.0 778.0 L 282.0 776.0 L 280.0 776.0 L 279.0 775.0 L 277.0 775.0 L 276.0 774.0 L 274.0 774.0 L 273.0 773.0 Z"/>
    <path d="M 266.0 774.0 L 270.0 774.0 L 271.0 775.0 L 276.0 775.0 L 277.0 776.0 L 278.0 776.0 L 282.0 780.0 L 282.0 781.0 L 283.0 782.0 L 283.0 784.0 L 284.0 785.0 L 284.0 797.0 L 283.0 798.0 L 283.0 800.0 L 282.0 801.0 L 282.0 802.0 L 281.0 803.0 L 281.0 804.0 L 276.0 809.0 L 275.0 809.0 L 274.0 810.0 L 272.0 810.0 L 271.0 811.0 L 266.0 811.0 L 264.0 809.0 L 264.0 776.0 Z"/>
    <path d="M 681.0 772.0 L 681.0 774.0 L 680.0 775.0 L 680.0 776.0 L 679.0 777.0 L 679.0 779.0 L 678.0 780.0 L 678.0 781.0 L 677.0 782.0 L 677.0 784.0 L 676.0 785.0 L 676.0 787.0 L 675.0 788.0 L 675.0 789.0 L 674.0 790.0 L 674.0 792.0 L 673.0 793.0 L 673.0 794.0 L 672.0 795.0 L 672.0 797.0 L 671.0 798.0 L 671.0 800.0 L 670.0 801.0 L 670.0 803.0 L 669.0 804.0 L 669.0 805.0 L 668.0 806.0 L 668.0 807.0 L 665.0 810.0 L 663.0 810.0 L 663.0 812.0 L 671.0 812.0 L 672.0 811.0 L 671.0 810.0 L 670.0 810.0 L 669.0 809.0 L 669.0 807.0 L 670.0 806.0 L 670.0 804.0 L 671.0 803.0 L 671.0 802.0 L 672.0 801.0 L 672.0 799.0 L 673.0 798.0 L 673.0 797.0 L 674.0 796.0 L 686.0 796.0 L 688.0 798.0 L 688.0 799.0 L 689.0 800.0 L 689.0 802.0 L 690.0 803.0 L 690.0 804.0 L 691.0 805.0 L 691.0 807.0 L 692.0 808.0 L 689.0 811.0 L 688.0 811.0 L 688.0 812.0 L 690.0 812.0 L 691.0 811.0 L 699.0 811.0 L 700.0 812.0 L 701.0 812.0 L 702.0 811.0 L 701.0 811.0 L 698.0 808.0 L 698.0 807.0 L 697.0 806.0 L 697.0 804.0 L 696.0 803.0 L 696.0 802.0 L 695.0 801.0 L 695.0 799.0 L 694.0 798.0 L 694.0 796.0 L 693.0 795.0 L 693.0 794.0 L 692.0 793.0 L 692.0 791.0 L 691.0 790.0 L 691.0 789.0 L 690.0 788.0 L 690.0 786.0 L 689.0 785.0 L 689.0 784.0 L 688.0 783.0 L 688.0 781.0 L 687.0 780.0 L 687.0 779.0 L 686.0 778.0 L 686.0 777.0 L 685.0 776.0 L 685.0 774.0 L 683.0 772.0 Z"/>
    <path d="M 679.0 782.0 L 681.0 782.0 L 682.0 783.0 L 682.0 784.0 L 683.0 785.0 L 683.0 787.0 L 684.0 788.0 L 684.0 789.0 L 685.0 790.0 L 685.0 792.0 L 682.0 795.0 L 676.0 795.0 L 675.0 794.0 L 675.0 792.0 L 676.0 791.0 L 676.0 789.0 L 677.0 788.0 L 677.0 786.0 L 678.0 785.0 L 678.0 783.0 Z"/>
    <path d="M 629.0 775.0 L 625.0 779.0 L 625.0 780.0 L 624.0 781.0 L 624.0 783.0 L 623.0 784.0 L 623.0 787.0 L 622.0 788.0 L 622.0 793.0 L 623.0 794.0 L 623.0 798.0 L 624.0 799.0 L 624.0 801.0 L 625.0 802.0 L 625.0 803.0 L 627.0 805.0 L 627.0 806.0 L 630.0 809.0 L 631.0 809.0 L 632.0 810.0 L 633.0 810.0 L 634.0 811.0 L 636.0 811.0 L 637.0 812.0 L 645.0 812.0 L 646.0 811.0 L 648.0 811.0 L 649.0 810.0 L 654.0 810.0 L 655.0 809.0 L 655.0 807.0 L 656.0 806.0 L 656.0 804.0 L 655.0 803.0 L 655.0 801.0 L 653.0 801.0 L 653.0 802.0 L 652.0 803.0 L 652.0 804.0 L 646.0 810.0 L 645.0 810.0 L 644.0 811.0 L 638.0 811.0 L 637.0 810.0 L 636.0 810.0 L 632.0 806.0 L 632.0 805.0 L 631.0 804.0 L 631.0 803.0 L 630.0 802.0 L 630.0 798.0 L 629.0 797.0 L 629.0 786.0 L 630.0 785.0 L 630.0 781.0 L 631.0 780.0 L 631.0 778.0 L 635.0 774.0 L 639.0 774.0 L 640.0 773.0 L 642.0 773.0 L 643.0 774.0 L 646.0 774.0 L 647.0 775.0 L 649.0 775.0 L 650.0 776.0 L 650.0 777.0 L 651.0 778.0 L 651.0 779.0 L 652.0 780.0 L 652.0 781.0 L 653.0 782.0 L 653.0 783.0 L 655.0 781.0 L 655.0 775.0 L 654.0 774.0 L 648.0 774.0 L 647.0 773.0 L 643.0 773.0 L 642.0 772.0 L 638.0 772.0 L 637.0 773.0 L 634.0 773.0 L 633.0 774.0 L 632.0 774.0 L 631.0 775.0 Z"/>
    <path d="M 401.0 775.0 L 395.0 781.0 L 395.0 782.0 L 394.0 783.0 L 394.0 786.0 L 393.0 787.0 L 393.0 796.0 L 394.0 797.0 L 394.0 799.0 L 395.0 800.0 L 395.0 801.0 L 396.0 802.0 L 396.0 803.0 L 400.0 807.0 L 400.0 808.0 L 401.0 808.0 L 403.0 810.0 L 404.0 810.0 L 405.0 811.0 L 407.0 811.0 L 408.0 812.0 L 416.0 812.0 L 417.0 811.0 L 419.0 811.0 L 420.0 810.0 L 425.0 810.0 L 426.0 809.0 L 426.0 801.0 L 424.0 801.0 L 424.0 803.0 L 417.0 810.0 L 416.0 810.0 L 415.0 811.0 L 409.0 811.0 L 408.0 810.0 L 407.0 810.0 L 403.0 806.0 L 403.0 805.0 L 402.0 804.0 L 402.0 802.0 L 401.0 801.0 L 401.0 782.0 L 402.0 781.0 L 402.0 778.0 L 405.0 775.0 L 406.0 775.0 L 407.0 774.0 L 416.0 774.0 L 417.0 775.0 L 419.0 775.0 L 422.0 778.0 L 422.0 779.0 L 424.0 781.0 L 424.0 783.0 L 426.0 781.0 L 426.0 775.0 L 425.0 774.0 L 419.0 774.0 L 418.0 773.0 L 415.0 773.0 L 414.0 772.0 L 410.0 772.0 L 409.0 773.0 L 406.0 773.0 L 405.0 774.0 L 403.0 774.0 L 402.0 775.0 Z"/>
    <path d="M 317.0 772.0 L 317.0 774.0 L 316.0 775.0 L 316.0 777.0 L 315.0 778.0 L 315.0 779.0 L 314.0 780.0 L 314.0 781.0 L 313.0 782.0 L 313.0 784.0 L 312.0 785.0 L 312.0 787.0 L 311.0 788.0 L 311.0 789.0 L 310.0 790.0 L 310.0 792.0 L 309.0 793.0 L 309.0 794.0 L 308.0 795.0 L 308.0 797.0 L 307.0 798.0 L 307.0 799.0 L 306.0 800.0 L 306.0 802.0 L 305.0 803.0 L 305.0 805.0 L 304.0 806.0 L 304.0 807.0 L 300.0 811.0 L 299.0 811.0 L 299.0 812.0 L 307.0 812.0 L 308.0 811.0 L 307.0 811.0 L 305.0 809.0 L 305.0 806.0 L 306.0 805.0 L 306.0 804.0 L 307.0 803.0 L 307.0 801.0 L 308.0 800.0 L 308.0 799.0 L 309.0 798.0 L 309.0 797.0 L 310.0 796.0 L 323.0 796.0 L 324.0 797.0 L 324.0 799.0 L 325.0 800.0 L 325.0 802.0 L 326.0 803.0 L 326.0 804.0 L 327.0 805.0 L 327.0 808.0 L 324.0 811.0 L 325.0 812.0 L 326.0 812.0 L 327.0 811.0 L 334.0 811.0 L 335.0 812.0 L 337.0 812.0 L 338.0 811.0 L 337.0 811.0 L 334.0 808.0 L 334.0 807.0 L 333.0 806.0 L 333.0 805.0 L 332.0 804.0 L 332.0 802.0 L 331.0 801.0 L 331.0 799.0 L 330.0 798.0 L 330.0 797.0 L 329.0 796.0 L 329.0 794.0 L 328.0 793.0 L 328.0 792.0 L 327.0 791.0 L 327.0 789.0 L 326.0 788.0 L 326.0 786.0 L 325.0 785.0 L 325.0 784.0 L 324.0 783.0 L 324.0 782.0 L 323.0 781.0 L 323.0 779.0 L 322.0 778.0 L 322.0 776.0 L 321.0 775.0 L 321.0 774.0 L 319.0 772.0 Z"/>
    <path d="M 315.0 783.0 L 317.0 783.0 L 318.0 784.0 L 318.0 785.0 L 319.0 786.0 L 319.0 787.0 L 320.0 788.0 L 320.0 790.0 L 321.0 791.0 L 321.0 792.0 L 318.0 795.0 L 312.0 795.0 L 311.0 794.0 L 311.0 792.0 L 312.0 791.0 L 312.0 789.0 L 313.0 788.0 L 313.0 786.0 L 314.0 785.0 L 314.0 784.0 Z"/>
    <path d="M 889.0 637.0 L 889.0 650.0 L 888.0 651.0 L 888.0 666.0 L 889.0 667.0 L 889.0 720.0 L 888.0 721.0 L 888.0 726.0 L 889.0 727.0 L 889.0 749.0 L 915.0 749.0 L 918.0 746.0 L 918.0 739.0 L 917.0 738.0 L 917.0 732.0 L 918.0 731.0 L 918.0 673.0 L 917.0 672.0 L 917.0 670.0 L 918.0 669.0 L 918.0 667.0 L 917.0 666.0 L 917.0 657.0 L 916.0 656.0 L 916.0 645.0 L 915.0 644.0 L 915.0 638.0 L 916.0 637.0 L 911.0 637.0 L 910.0 636.0 L 898.0 636.0 L 897.0 637.0 Z"/>
    <path d="M 812.0 637.0 L 812.0 638.0 L 813.0 639.0 L 812.0 640.0 L 812.0 749.0 L 839.0 749.0 L 841.0 747.0 L 841.0 700.0 L 842.0 699.0 L 846.0 699.0 L 849.0 702.0 L 849.0 703.0 L 850.0 704.0 L 850.0 708.0 L 851.0 709.0 L 851.0 749.0 L 875.0 749.0 L 877.0 747.0 L 877.0 705.0 L 876.0 704.0 L 876.0 701.0 L 875.0 700.0 L 874.0 697.0 L 872.0 695.0 L 871.0 695.0 L 868.0 692.0 L 868.0 690.0 L 874.0 684.0 L 874.0 683.0 L 876.0 680.0 L 876.0 677.0 L 877.0 676.0 L 877.0 660.0 L 876.0 659.0 L 876.0 656.0 L 875.0 655.0 L 875.0 653.0 L 874.0 652.0 L 874.0 650.0 L 873.0 649.0 L 871.0 644.0 L 870.0 643.0 L 869.0 643.0 L 867.0 641.0 L 866.0 641.0 L 863.0 639.0 L 861.0 639.0 L 858.0 637.0 L 852.0 637.0 L 851.0 636.0 L 818.0 636.0 L 817.0 637.0 Z"/>
    <path d="M 846.0 656.0 L 847.0 657.0 L 848.0 657.0 L 849.0 658.0 L 849.0 659.0 L 850.0 660.0 L 850.0 675.0 L 845.0 680.0 L 843.0 680.0 L 842.0 681.0 L 841.0 680.0 L 841.0 657.0 L 842.0 656.0 Z"/>
    <path d="M 772.0 637.0 L 772.0 645.0 L 771.0 646.0 L 771.0 663.0 L 772.0 664.0 L 772.0 672.0 L 771.0 673.0 L 771.0 679.0 L 772.0 680.0 L 772.0 713.0 L 771.0 714.0 L 771.0 726.0 L 772.0 727.0 L 772.0 743.0 L 771.0 744.0 L 771.0 748.0 L 772.0 749.0 L 798.0 749.0 L 800.0 747.0 L 800.0 658.0 L 799.0 657.0 L 799.0 637.0 L 798.0 636.0 L 780.0 636.0 L 779.0 637.0 Z"/>
    <path d="M 712.0 637.0 L 712.0 658.0 L 711.0 659.0 L 711.0 674.0 L 712.0 675.0 L 712.0 749.0 L 760.0 749.0 L 762.0 747.0 L 762.0 726.0 L 743.0 726.0 L 741.0 724.0 L 741.0 703.0 L 742.0 702.0 L 758.0 702.0 L 760.0 700.0 L 760.0 681.0 L 759.0 680.0 L 742.0 680.0 L 741.0 679.0 L 741.0 660.0 L 742.0 659.0 L 759.0 659.0 L 761.0 657.0 L 761.0 654.0 L 760.0 653.0 L 760.0 637.0 L 757.0 637.0 L 756.0 636.0 L 722.0 636.0 L 721.0 637.0 Z"/>
    <path d="M 640.0 637.0 L 640.0 749.0 L 667.0 749.0 L 669.0 747.0 L 669.0 705.0 L 670.0 704.0 L 686.0 704.0 L 687.0 703.0 L 689.0 703.0 L 690.0 702.0 L 691.0 702.0 L 699.0 694.0 L 699.0 693.0 L 701.0 691.0 L 701.0 690.0 L 702.0 689.0 L 702.0 686.0 L 703.0 685.0 L 703.0 675.0 L 704.0 674.0 L 704.0 662.0 L 703.0 661.0 L 703.0 656.0 L 702.0 655.0 L 702.0 653.0 L 701.0 652.0 L 701.0 651.0 L 700.0 650.0 L 700.0 649.0 L 699.0 648.0 L 699.0 647.0 L 697.0 645.0 L 697.0 644.0 L 696.0 643.0 L 695.0 643.0 L 693.0 641.0 L 692.0 641.0 L 689.0 639.0 L 687.0 639.0 L 686.0 638.0 L 684.0 638.0 L 683.0 637.0 L 675.0 637.0 L 674.0 636.0 L 648.0 636.0 L 647.0 637.0 Z"/>
    <path d="M 670.0 656.0 L 674.0 656.0 L 675.0 657.0 L 676.0 657.0 L 678.0 659.0 L 678.0 660.0 L 679.0 661.0 L 679.0 677.0 L 678.0 678.0 L 678.0 679.0 L 677.0 680.0 L 677.0 681.0 L 674.0 684.0 L 673.0 684.0 L 672.0 685.0 L 670.0 685.0 L 669.0 684.0 L 669.0 657.0 Z"/>
    <path d="M 463.0 638.0 L 463.0 642.0 L 464.0 643.0 L 463.0 646.0 L 463.0 749.0 L 490.0 749.0 L 492.0 747.0 L 492.0 712.0 L 493.0 711.0 L 496.0 712.0 L 504.0 749.0 L 532.0 749.0 L 533.0 748.0 L 537.0 749.0 L 564.0 749.0 L 566.0 747.0 L 567.0 734.0 L 569.0 729.0 L 577.0 729.0 L 578.0 730.0 L 580.0 748.0 L 581.0 749.0 L 608.0 749.0 L 610.0 747.0 L 608.0 741.0 L 608.0 735.0 L 607.0 734.0 L 607.0 729.0 L 606.0 728.0 L 606.0 723.0 L 603.0 710.0 L 603.0 703.0 L 601.0 697.0 L 597.0 664.0 L 596.0 663.0 L 596.0 658.0 L 595.0 657.0 L 592.0 637.0 L 590.0 636.0 L 553.0 636.0 L 551.0 637.0 L 549.0 654.0 L 548.0 655.0 L 548.0 663.0 L 546.0 668.0 L 544.0 693.0 L 543.0 694.0 L 543.0 703.0 L 542.0 704.0 L 541.0 717.0 L 540.0 718.0 L 539.0 730.0 L 538.0 731.0 L 538.0 739.0 L 537.0 740.0 L 537.0 744.0 L 534.0 747.0 L 532.0 744.0 L 532.0 741.0 L 529.0 734.0 L 529.0 731.0 L 526.0 724.0 L 525.0 717.0 L 517.0 691.0 L 518.0 679.0 L 524.0 663.0 L 524.0 660.0 L 531.0 637.0 L 527.0 637.0 L 526.0 636.0 L 506.0 637.0 L 496.0 665.0 L 496.0 668.0 L 493.0 671.0 L 492.0 670.0 L 492.0 655.0 L 491.0 654.0 L 492.0 650.0 L 492.0 640.0 L 491.0 637.0 L 487.0 636.0 L 467.0 636.0 Z"/>
    <path d="M 571.0 680.0 L 574.0 680.0 L 575.0 681.0 L 575.0 694.0 L 576.0 695.0 L 576.0 705.0 L 573.0 708.0 L 570.0 708.0 L 569.0 707.0 L 569.0 695.0 L 570.0 694.0 L 570.0 681.0 Z"/>
    <path d="M 399.0 636.0 L 399.0 641.0 L 398.0 642.0 L 398.0 648.0 L 397.0 649.0 L 397.0 657.0 L 396.0 658.0 L 396.0 664.0 L 395.0 665.0 L 395.0 672.0 L 394.0 673.0 L 394.0 682.0 L 393.0 683.0 L 393.0 687.0 L 392.0 688.0 L 392.0 697.0 L 391.0 698.0 L 391.0 705.0 L 390.0 706.0 L 390.0 712.0 L 389.0 713.0 L 389.0 718.0 L 388.0 719.0 L 388.0 723.0 L 387.0 724.0 L 387.0 729.0 L 386.0 730.0 L 386.0 736.0 L 385.0 737.0 L 385.0 742.0 L 384.0 743.0 L 384.0 749.0 L 412.0 749.0 L 414.0 747.0 L 414.0 741.0 L 415.0 740.0 L 415.0 733.0 L 416.0 732.0 L 416.0 730.0 L 417.0 729.0 L 424.0 729.0 L 427.0 732.0 L 427.0 738.0 L 428.0 739.0 L 428.0 744.0 L 429.0 745.0 L 429.0 749.0 L 455.0 749.0 L 457.0 747.0 L 457.0 741.0 L 456.0 740.0 L 456.0 735.0 L 455.0 734.0 L 455.0 730.0 L 454.0 729.0 L 454.0 725.0 L 453.0 724.0 L 453.0 719.0 L 452.0 718.0 L 452.0 711.0 L 451.0 710.0 L 451.0 704.0 L 450.0 703.0 L 450.0 696.0 L 449.0 695.0 L 449.0 688.0 L 448.0 687.0 L 448.0 682.0 L 447.0 681.0 L 447.0 676.0 L 446.0 675.0 L 446.0 670.0 L 445.0 669.0 L 445.0 666.0 L 444.0 665.0 L 444.0 657.0 L 443.0 656.0 L 443.0 649.0 L 442.0 648.0 L 442.0 642.0 L 440.0 639.0 L 440.0 637.0 L 437.0 637.0 L 436.0 636.0 Z"/>
    <path d="M 419.0 682.0 L 422.0 682.0 L 423.0 683.0 L 423.0 691.0 L 424.0 692.0 L 424.0 703.0 L 425.0 704.0 L 425.0 705.0 L 422.0 708.0 L 417.0 708.0 L 416.0 707.0 L 416.0 702.0 L 417.0 701.0 L 417.0 692.0 L 418.0 691.0 L 418.0 683.0 Z"/>
    <path d="M 313.0 637.0 L 313.0 652.0 L 312.0 653.0 L 312.0 655.0 L 313.0 656.0 L 313.0 749.0 L 336.0 749.0 L 338.0 747.0 L 338.0 709.0 L 339.0 708.0 L 341.0 708.0 L 342.0 709.0 L 342.0 711.0 L 343.0 712.0 L 343.0 715.0 L 344.0 716.0 L 344.0 719.0 L 345.0 720.0 L 345.0 722.0 L 346.0 723.0 L 346.0 725.0 L 347.0 726.0 L 347.0 729.0 L 348.0 730.0 L 348.0 732.0 L 349.0 733.0 L 349.0 735.0 L 350.0 736.0 L 350.0 739.0 L 351.0 740.0 L 351.0 743.0 L 352.0 744.0 L 353.0 749.0 L 377.0 749.0 L 379.0 747.0 L 379.0 668.0 L 378.0 667.0 L 378.0 637.0 L 377.0 637.0 L 376.0 636.0 L 355.0 636.0 L 354.0 637.0 L 354.0 659.0 L 355.0 660.0 L 355.0 663.0 L 354.0 664.0 L 354.0 668.0 L 355.0 669.0 L 355.0 677.0 L 352.0 680.0 L 351.0 679.0 L 351.0 677.0 L 350.0 676.0 L 350.0 674.0 L 349.0 673.0 L 348.0 668.0 L 347.0 667.0 L 347.0 666.0 L 346.0 665.0 L 346.0 663.0 L 345.0 662.0 L 345.0 658.0 L 344.0 657.0 L 344.0 653.0 L 341.0 648.0 L 341.0 646.0 L 340.0 645.0 L 340.0 642.0 L 338.0 639.0 L 338.0 637.0 L 337.0 637.0 L 336.0 636.0 L 323.0 636.0 L 322.0 637.0 Z"/>
    <path d="M 254.0 637.0 L 254.0 749.0 L 302.0 749.0 L 304.0 747.0 L 304.0 744.0 L 305.0 743.0 L 305.0 732.0 L 304.0 731.0 L 304.0 726.0 L 284.0 726.0 L 283.0 725.0 L 283.0 703.0 L 284.0 702.0 L 300.0 702.0 L 302.0 700.0 L 302.0 681.0 L 301.0 680.0 L 284.0 680.0 L 283.0 679.0 L 283.0 671.0 L 282.0 670.0 L 282.0 660.0 L 283.0 659.0 L 301.0 659.0 L 303.0 657.0 L 303.0 655.0 L 302.0 654.0 L 302.0 637.0 L 301.0 636.0 L 298.0 636.0 L 297.0 637.0 L 293.0 637.0 L 292.0 636.0 L 269.0 636.0 L 268.0 637.0 Z"/>
    <path d="M 153.0 636.0 L 152.0 637.0 L 152.0 749.0 L 175.0 749.0 L 177.0 747.0 L 177.0 699.0 L 178.0 698.0 L 180.0 698.0 L 181.0 699.0 L 181.0 707.0 L 182.0 708.0 L 182.0 715.0 L 183.0 716.0 L 184.0 728.0 L 185.0 729.0 L 185.0 734.0 L 186.0 735.0 L 187.0 749.0 L 205.0 749.0 L 207.0 747.0 L 208.0 732.0 L 209.0 731.0 L 209.0 725.0 L 210.0 724.0 L 210.0 718.0 L 211.0 717.0 L 211.0 711.0 L 212.0 710.0 L 212.0 704.0 L 213.0 703.0 L 213.0 697.0 L 214.0 696.0 L 216.0 696.0 L 217.0 697.0 L 217.0 706.0 L 216.0 707.0 L 216.0 709.0 L 217.0 710.0 L 217.0 745.0 L 216.0 746.0 L 216.0 748.0 L 217.0 749.0 L 240.0 749.0 L 242.0 747.0 L 242.0 637.0 L 241.0 636.0 L 221.0 636.0 L 220.0 637.0 L 218.0 637.0 L 217.0 636.0 L 204.0 636.0 L 204.0 640.0 L 203.0 641.0 L 203.0 648.0 L 202.0 649.0 L 202.0 657.0 L 200.0 662.0 L 199.0 676.0 L 196.0 679.0 L 195.0 678.0 L 195.0 671.0 L 194.0 670.0 L 194.0 667.0 L 193.0 666.0 L 192.0 660.0 L 191.0 659.0 L 190.0 638.0 L 188.0 636.0 Z"/>
    <path d="M 946.0 635.0 L 945.0 636.0 L 940.0 637.0 L 938.0 639.0 L 935.0 640.0 L 933.0 642.0 L 932.0 645.0 L 930.0 647.0 L 930.0 648.0 L 928.0 651.0 L 928.0 656.0 L 927.0 657.0 L 927.0 670.0 L 928.0 671.0 L 928.0 678.0 L 929.0 679.0 L 929.0 681.0 L 930.0 682.0 L 931.0 685.0 L 935.0 690.0 L 936.0 690.0 L 943.0 697.0 L 946.0 698.0 L 948.0 700.0 L 949.0 700.0 L 951.0 702.0 L 952.0 702.0 L 954.0 704.0 L 955.0 704.0 L 957.0 706.0 L 958.0 706.0 L 960.0 708.0 L 961.0 708.0 L 964.0 711.0 L 964.0 712.0 L 966.0 715.0 L 966.0 727.0 L 961.0 732.0 L 960.0 732.0 L 959.0 733.0 L 957.0 731.0 L 957.0 730.0 L 956.0 729.0 L 956.0 710.0 L 955.0 709.0 L 955.0 708.0 L 954.0 709.0 L 928.0 709.0 L 928.0 727.0 L 929.0 728.0 L 929.0 734.0 L 930.0 735.0 L 930.0 737.0 L 931.0 738.0 L 931.0 739.0 L 936.0 744.0 L 937.0 744.0 L 940.0 747.0 L 941.0 747.0 L 944.0 749.0 L 946.0 749.0 L 947.0 750.0 L 950.0 750.0 L 951.0 751.0 L 970.0 751.0 L 971.0 750.0 L 976.0 749.0 L 977.0 748.0 L 982.0 746.0 L 989.0 739.0 L 989.0 738.0 L 991.0 736.0 L 991.0 735.0 L 993.0 732.0 L 993.0 730.0 L 994.0 729.0 L 994.0 722.0 L 995.0 721.0 L 995.0 715.0 L 994.0 714.0 L 994.0 708.0 L 993.0 707.0 L 993.0 704.0 L 992.0 703.0 L 989.0 696.0 L 981.0 688.0 L 980.0 688.0 L 974.0 683.0 L 973.0 683.0 L 971.0 681.0 L 970.0 681.0 L 968.0 679.0 L 967.0 679.0 L 965.0 677.0 L 964.0 677.0 L 962.0 675.0 L 961.0 675.0 L 956.0 670.0 L 956.0 669.0 L 955.0 668.0 L 955.0 655.0 L 956.0 654.0 L 962.0 654.0 L 964.0 656.0 L 964.0 669.0 L 965.0 670.0 L 989.0 670.0 L 992.0 667.0 L 992.0 659.0 L 991.0 658.0 L 991.0 654.0 L 989.0 651.0 L 989.0 649.0 L 988.0 648.0 L 986.0 643.0 L 984.0 641.0 L 981.0 640.0 L 979.0 638.0 L 978.0 638.0 L 975.0 636.0 L 973.0 636.0 L 972.0 635.0 L 970.0 635.0 L 969.0 634.0 L 954.0 634.0 L 953.0 635.0 Z"/>
    <path d="M 769.0 270.0 L 758.0 258.0 L 747.0 253.0 L 722.0 257.0 L 698.0 281.0 L 670.0 329.0 L 678.0 280.0 L 654.0 269.0 L 640.0 268.0 L 614.0 295.0 L 586.0 334.0 L 523.0 445.0 L 537.0 371.0 L 564.0 287.0 L 542.0 273.0 L 527.0 268.0 L 514.0 269.0 L 472.0 314.0 L 425.0 388.0 L 375.0 490.0 L 371.0 504.0 L 372.0 521.0 L 391.0 532.0 L 398.0 529.0 L 411.0 477.0 L 436.0 418.0 L 480.0 344.0 L 502.0 317.0 L 509.0 314.0 L 487.0 418.0 L 481.0 520.0 L 504.0 531.0 L 521.0 532.0 L 534.0 477.0 L 563.0 403.0 L 598.0 346.0 L 622.0 317.0 L 631.0 312.0 L 616.0 417.0 L 609.0 537.0 L 612.0 562.0 L 623.0 590.0 L 645.0 606.0 L 649.0 600.0 L 654.0 444.0 L 669.0 369.0 L 703.0 299.0 L 721.0 275.0 L 731.0 268.0 L 735.0 275.0 L 734.0 306.0 L 721.0 366.0 L 704.0 409.0 L 680.0 443.0 L 687.0 448.0 L 698.0 448.0 L 724.0 434.0 L 750.0 405.0 L 770.0 361.0 L 776.0 328.0 L 776.0 299.0 Z"/>
  </g>
  <g fill="url(#goldShine)" fill-rule="evenodd" opacity="0.85">
    <path d="M 258.0 777.0 L 257.0 777.0 L 257.0 808.0 L 258.0 807.0 Z"/>
    <path d="M 217.0 711.0 L 216.0 711.0 L 216.0 746.0 L 217.0 745.0 Z"/>
    <path d="M 851.0 710.0 L 850.0 710.0 L 850.0 747.0 L 851.0 746.0 Z"/>
    <path d="M 927.0 722.0 L 928.0 721.0 L 928.0 710.0 L 929.0 709.0 L 953.0 709.0 L 954.0 708.0 L 927.0 708.0 Z"/>
    <path d="M 772.0 681.0 L 771.0 681.0 L 771.0 714.0 L 772.0 713.0 Z"/>
    <path d="M 712.0 676.0 L 711.0 676.0 L 711.0 747.0 L 712.0 746.0 Z"/>
    <path d="M 889.0 668.0 L 888.0 668.0 L 888.0 721.0 L 889.0 720.0 Z"/>
  </g>
</svg>
